<mxfile host="app.diagrams.net" modified="2023-10-19T10:34:58.443Z" agent="Mozilla/5.0 (X11; Linux x86_64; rv:109.0) Gecko/20100101 Firefox/114.0" version="21.6.6" etag="D333tv83FCv0G_TDPoxh" type="github">
  <diagram name="第 1 页" id="xHCMCE373iNOkMRZp9IY">
    <mxGraphModel>
      <root>
        <mxCell id="0" />
        <mxCell id="1" parent="0" />
      </root>
    </mxGraphModel>
  </diagram>
</mxfile>
